<svg width="24" height="25" viewBox="0 0 24 25" fill="none" xmlns="http://www.w3.org/2000/svg">
<mask id="mask0_107823_1809" style="mask-type:alpha" maskUnits="userSpaceOnUse" x="0" y="0" width="24" height="25">
<rect y="0.5" width="24" height="24" fill="#D9D9D9"/>
</mask>
<g mask="url(#mask0_107823_1809)">
<path d="M15.5 11.5C15.9333 11.5 16.2917 11.3583 16.575 11.075C16.8583 10.7917 17 10.4333 17 10C17 9.56667 16.8583 9.20833 16.575 8.925C16.2917 8.64167 15.9333 8.5 15.5 8.5C15.0667 8.5 14.7083 8.64167 14.425 8.925C14.1417 9.20833 14 9.56667 14 10C14 10.4333 14.1417 10.7917 14.425 11.075C14.7083 11.3583 15.0667 11.5 15.5 11.5ZM8.5 11.5C8.93333 11.5 9.29167 11.3583 9.575 11.075C9.85833 10.7917 10 10.4333 10 10C10 9.56667 9.85833 9.20833 9.575 8.925C9.29167 8.64167 8.93333 8.5 8.5 8.5C8.06667 8.5 7.70833 8.64167 7.425 8.925C7.14167 9.20833 7 9.56667 7 10C7 10.4333 7.14167 10.7917 7.425 11.075C7.70833 11.3583 8.06667 11.5 8.5 11.5ZM12 18C12.95 18 13.8167 17.7877 14.6 17.363C15.3833 16.9377 15.9917 16.4 16.425 15.75C16.625 15.45 16.6543 15.1667 16.513 14.9C16.371 14.6333 16.15 14.5 15.85 14.5C15.7333 14.5 15.6167 14.5333 15.5 14.6C15.3833 14.6667 15.2917 14.75 15.225 14.85C14.8583 15.35 14.4 15.75 13.85 16.05C13.3 16.35 12.6833 16.5 12 16.5C11.3167 16.5 10.7 16.35 10.15 16.05C9.6 15.75 9.14167 15.35 8.775 14.85C8.70833 14.75 8.61267 14.6667 8.488 14.6C8.36267 14.5333 8.24167 14.5 8.125 14.5C7.84167 14.5 7.62933 14.629 7.488 14.887C7.346 15.1457 7.36667 15.4167 7.55 15.7C8 16.3833 8.61667 16.9377 9.4 17.363C10.1833 17.7877 11.05 18 12 18ZM12 22.5C10.6167 22.5 9.31667 22.2373 8.1 21.712C6.88333 21.1873 5.825 20.475 4.925 19.575C4.025 18.675 3.31267 17.6167 2.788 16.4C2.26267 15.1833 2 13.8833 2 12.5C2 11.1167 2.26267 9.81667 2.788 8.6C3.31267 7.38333 4.025 6.325 4.925 5.425C5.825 4.525 6.88333 3.81233 8.1 3.287C9.31667 2.76233 10.6167 2.5 12 2.5C13.3833 2.5 14.6833 2.76233 15.9 3.287C17.1167 3.81233 18.175 4.525 19.075 5.425C19.975 6.325 20.6873 7.38333 21.212 8.6C21.7373 9.81667 22 11.1167 22 12.5C22 13.8833 21.7373 15.1833 21.212 16.4C20.6873 17.6167 19.975 18.675 19.075 19.575C18.175 20.475 17.1167 21.1873 15.9 21.712C14.6833 22.2373 13.3833 22.5 12 22.5ZM12 20.5C14.2167 20.5 16.1043 19.721 17.663 18.163C19.221 16.6043 20 14.7167 20 12.5C20 10.2833 19.221 8.39567 17.663 6.837C16.1043 5.279 14.2167 4.5 12 4.5C9.78333 4.5 7.896 5.279 6.338 6.837C4.77933 8.39567 4 10.2833 4 12.5C4 14.7167 4.77933 16.6043 6.338 18.163C7.896 19.721 9.78333 20.5 12 20.5Z" fill="#686868"/>
</g>
</svg>
