<svg width="30" height="30" viewBox="0 0 30 30" fill="none" xmlns="http://www.w3.org/2000/svg">
<path d="M12.5012 0L15.0001 5L17.499 0H12.5012ZM21.4473 0.5L21.0975 6.1L25.7454 3L21.4473 0.5ZM4.25476 3L8.95272 6.1L8.60288 0.5L4.25476 3Z" fill="#4AA9FF"/>
<path d="M9.2025 30H3.30505V23.55L10.2021 25.15C8.55278 26.9 9.2025 30 9.2025 30Z" fill="#EBA352"/>
<path d="M8.6531 30H2.05596C2.05596 30 2.15592 26.8 1.0564 24.05L9.30282 25.25C8.35323 27.7 8.6531 30 8.6531 30ZM8.00339 21.2H10.5023V10.1C10.5023 9.35 9.95254 8.75 9.25284 8.75C8.55315 8.75 8.00339 9.35 8.00339 10.15V21.2ZM5.05466 21.2H8.00339V9.15C8.00339 8.25 7.35367 7.5 6.50404 7.5C5.70438 7.5 5.00469 8.25 5.00469 9.15V21.2H5.05466Z" fill="#FFDD67"/>
<path d="M2.50572 21.1999H5.10459V9.8499C5.10459 9.0499 4.50485 8.3999 3.80516 8.3999C3.10546 8.3999 2.50572 9.0499 2.50572 9.8499V21.1999ZM1.30624 10.0999C0.656522 10.0999 0.156738 10.6999 0.156738 11.4499V21.1999H2.50572V11.4499C2.50572 10.6999 1.95596 10.0999 1.30624 10.0999Z" fill="#FFDD67"/>
<path d="M9.25243 8.7H9.00254C9.60228 8.8 10.0521 9.4 10.0521 10.05V21.2H10.5019V10.1C10.5019 9.35 9.95212 8.7 9.25243 8.7ZM6.5536 7.5C6.45364 7.5 6.40366 7.5 6.35368 7.55C7.05338 7.65 7.60314 8.35 7.60314 9.15V17.2L8.05295 17.7V9.15C8.00297 8.25 7.35325 7.5 6.5536 7.5ZM3.80479 8.4H3.60487C4.20461 8.5 4.65442 9.1 4.65442 9.8V17.15L5.10422 17.65V9.85C5.05425 9.05 4.50448 8.4 3.80479 8.4ZM1.30587 10.1C1.20591 10.1 1.15594 10.1 1.10596 10.15C1.65572 10.25 2.05555 10.8 2.05555 11.45V17.2L2.50535 17.7V11.45C2.50535 10.7 1.95559 10.1 1.30587 10.1Z" fill="#EBA352"/>
<path d="M14.7001 16.1C13.9505 15.25 12.4511 15.65 11.4016 17.85C10.6519 19.35 10.452 19.05 10.0521 19.15V17.8C10.0521 17.8 0.106455 17.15 0.106455 18.65C0.106455 18.65 -0.34335 22.35 0.606238 24.65C2.05561 28.1 9.4524 29 11.7514 23.15C12.2012 22 12.8509 20.75 13.3507 19.5C14.0004 18 15.5498 17.1 14.7001 16.1Z" fill="#FFDD67"/>
<path d="M14.2004 15.75C15.7997 16.95 12.8509 19.25 11.4515 22.8C9.45241 27.9 3.60494 27.9 1.15601 25.55C3.40503 28.2 9.65232 28.7 11.7514 23.15C13.1508 19.55 16.5493 16.8 14.2004 15.75Z" fill="#EBA352"/>
<path d="M10.5017 19.1C8.55259 18.4 4.45437 19.7499 5.00413 23.6499C5.00413 19.9999 8.25272 19.1499 10.0519 19.1499C10.3018 19.1499 10.5017 19.1 10.5017 19.1ZM20.7973 30H26.6947V23.5499L19.7977 25.1499C21.447 26.8999 20.7973 30 20.7973 30Z" fill="#EBA352"/>
<path d="M21.3472 30H27.9444C27.9444 30 27.8444 26.8 28.944 24.05L20.6975 25.25C21.6471 27.7 21.3472 30 21.3472 30ZM21.997 21.2H19.498V10.1C19.498 9.35 20.0478 8.75 20.7475 8.75C21.4472 8.75 21.997 9.35 21.997 10.15V21.2ZM24.9457 21.2H21.997V9.15C21.997 8.25 22.6467 7.5 23.4963 7.5C24.296 7.5 24.9957 8.25 24.9957 9.15V21.2H24.9457Z" fill="#FFDD67"/>
<path d="M27.4945 21.1999H24.8956V9.8499C24.8956 9.0499 25.4954 8.3999 26.1951 8.3999C26.8948 8.3999 27.4945 9.0499 27.4945 9.8499V21.1999ZM28.694 10.0999C29.3437 10.0999 29.8435 10.6999 29.8435 11.4499V21.1999H27.4945V11.4499C27.4945 10.6999 28.0443 10.0999 28.694 10.0999Z" fill="#FFDD67"/>
<path d="M20.7475 8.7H20.9974C20.3977 8.8 19.9479 9.4 19.9479 10.05V21.2H19.498V10.1C19.498 9.35 20.0478 8.7 20.7475 8.7ZM23.4463 7.5C23.5463 7.5 23.5963 7.5 23.6462 7.55C22.9466 7.65 22.3968 8.35 22.3968 9.15V17.2L21.947 17.7V9.15C21.997 8.25 22.6467 7.5 23.4463 7.5ZM26.1951 8.4H26.3951C25.7953 8.5 25.3455 9.1 25.3455 9.8V17.15L24.8957 17.65V9.85C24.9457 9.05 25.4954 8.4 26.1951 8.4ZM28.6941 10.1C28.794 10.1 28.844 10.1 28.894 10.15C28.3442 10.25 27.9444 10.8 27.9444 11.45V17.2L27.4946 17.7V11.45C27.4946 10.7 28.0443 10.1 28.6941 10.1Z" fill="#EBA352"/>
<path d="M15.3 16.1C16.0497 15.25 17.549 15.65 18.5986 17.85C19.3483 19.35 19.5482 19.05 19.948 19.15V17.8C19.948 17.8 29.8937 17.15 29.8937 18.65C29.8937 18.65 30.3435 22.35 29.3939 24.65C27.9445 28.1 20.5477 29 18.2487 23.15C17.7989 22 17.1492 20.75 16.6494 19.5C15.9997 18 14.4504 17.1 15.3 16.1Z" fill="#FFDD67"/>
<path d="M15.7999 15.75C14.2006 16.95 17.1494 19.25 18.5488 22.8C20.5479 27.9 26.3954 27.9 28.8443 25.55C26.5953 28.2 20.348 28.7 18.2489 23.15C16.8495 19.55 13.451 16.8 15.7999 15.75Z" fill="#EBA352"/>
<path d="M19.498 19.1C21.4472 18.4 25.5454 19.7499 24.9957 23.65C24.9957 19.9999 21.7471 19.1499 19.9479 19.1499C19.698 19.1499 19.498 19.1 19.498 19.1Z" fill="#EBA352"/>
</svg>
