<svg width="31" height="30" viewBox="0 0 31 30" fill="none" xmlns="http://www.w3.org/2000/svg">
<path d="M15.5 30C23.7843 30 30.5 23.2843 30.5 15C30.5 6.71573 23.7843 0 15.5 0C7.21573 0 0.5 6.71573 0.5 15C0.5 23.2843 7.21573 30 15.5 30Z" fill="#FFDD67"/>
<path d="M8 19.5C11.0376 19.5 13.5 17.0376 13.5 14C13.5 10.9624 11.0376 8.5 8 8.5C4.96243 8.5 2.5 10.9624 2.5 14C2.5 17.0376 4.96243 19.5 8 19.5Z" fill="white"/>
<path d="M23 19.5C26.0376 19.5 28.5 17.0376 28.5 14C28.5 10.9624 26.0376 8.5 23 8.5C19.9624 8.5 17.5 10.9624 17.5 14C17.5 17.0376 19.9624 19.5 23 19.5Z" fill="white"/>
<path d="M17.5 12.5C16.6 11.85 14.4 11.85 13.5 12.5C12.95 12 13.05 11.45 12.5 10.95C14.05 9.79998 16.7 9.59998 18.5 10.95C17.95 11.45 18.05 12 17.5 12.5Z" fill="#494949"/>
<path d="M23 7.5C19.4 7.5 16.5 10.4 16.5 14C16.5 17.6 19.4 20.5 23 20.5C26.6 20.5 29.5 17.6 29.5 14C29.5 10.4 26.6 7.5 23 7.5ZM23 19C20.25 19 18 16.75 18 14C18 11.25 20.25 9 23 9C25.75 9 28 11.25 28 14C28 16.75 25.75 19 23 19ZM8 7.5C4.4 7.5 1.5 10.4 1.5 14C1.5 17.6 4.4 20.5 8 20.5C11.6 20.5 14.5 17.6 14.5 14C14.5 10.4 11.6 7.5 8 7.5ZM8 19C5.25 19 3 16.75 3 14C3 11.25 5.25 9 8 9C10.75 9 13 11.25 13 14C13 16.75 10.75 19 8 19Z" fill="#494949"/>
<path d="M9.5 16.75C10.6046 16.75 11.5 15.6307 11.5 14.25C11.5 12.8693 10.6046 11.75 9.5 11.75C8.39543 11.75 7.5 12.8693 7.5 14.25C7.5 15.6307 8.39543 16.75 9.5 16.75Z" fill="#664E27"/>
<path d="M21.5 16.75C22.6046 16.75 23.5 15.6307 23.5 14.25C23.5 12.8693 22.6046 11.75 21.5 11.75C20.3954 11.75 19.5 12.8693 19.5 14.25C19.5 15.6307 20.3954 16.75 21.5 16.75Z" fill="#664E27"/>
<path d="M12.8499 24.6499C15.7499 25.3999 18.8499 24.8499 21.2999 23.1499C21.8999 22.6999 20.7499 21.1499 20.1499 21.5499C18.5499 22.6999 15.9499 23.4499 13.2999 22.7499C12.6499 22.5999 12.0999 24.4499 12.8499 24.6499Z" fill="#664E27"/>
<path d="M26.1001 6.85007C24.5001 5.50007 22.3501 4.90007 20.2501 5.30007C19.9501 5.35007 19.7001 4.30007 20.0501 4.20007C22.4501 3.75007 24.9501 4.45007 26.8001 6.00007C27.1001 6.25007 26.3001 7.05007 26.1001 6.85007ZM10.7501 5.20007C8.65009 4.85007 6.50009 5.40007 4.90009 6.75007C4.70009 6.95007 3.90009 6.15007 4.20009 5.90007C6.05009 4.30007 8.55009 3.65007 10.9501 4.10007C11.3001 4.20007 11.0501 5.25007 10.7501 5.20007Z" fill="#917524"/>
</svg>
