<svg width="30" height="30" viewBox="0 0 30 30" fill="none" xmlns="http://www.w3.org/2000/svg">
<path d="M4.46757 23.3111C6.46424 21.3144 6.66391 20.8152 7.91183 22.0632C9.15975 23.3111 8.66058 23.4608 6.66391 25.5074C5.16641 27.0049 3.26957 26.7054 3.26957 26.7054C3.26957 26.7054 2.97007 24.8086 4.46757 23.3111Z" fill="#FF9D27"/>
<path d="M8.26124 25.3577C9.05991 23.2612 9.30949 23.0116 8.16141 22.3627C7.01332 21.7138 7.01332 22.163 6.26457 24.2595C5.66557 25.8069 6.3644 27.2046 6.3644 27.2046C6.3644 27.2046 7.71216 26.955 8.26124 25.3577Z" fill="#FF9D27"/>
<path d="M7.113 23.411C7.56225 22.2629 7.56225 22.0133 8.16125 22.3627C8.81017 22.7121 8.66042 22.8619 8.21117 24.01C7.91167 24.8585 7.16291 25.0582 7.16291 25.0582C7.16291 25.0582 6.8135 24.3095 7.113 23.411Z" fill="#FDF516"/>
<path d="M7.56215 21.8137C6.91323 20.6657 6.66364 20.9152 4.56714 21.7139C3.01972 22.3129 2.72021 23.6107 2.72021 23.6107C2.72021 23.6107 4.11789 24.3096 5.66531 23.7106C7.76181 22.9119 8.21106 22.9119 7.56215 21.8137Z" fill="#FF9D27"/>
<path d="M6.5142 22.8618C7.66228 22.4126 7.91187 22.4126 7.56245 21.8136C7.21303 21.1647 7.06328 21.3144 5.9152 21.7637C5.06661 22.0632 4.86694 22.8119 4.86694 22.8119C4.86694 22.8119 5.66561 23.1613 6.5142 22.8618Z" fill="#FDF516"/>
<path d="M5.96504 22.762C7.06321 21.6639 7.16304 21.3644 7.86187 22.0632C8.56071 22.762 8.26121 22.8619 7.16304 23.96C6.31445 24.8086 5.2662 24.6089 5.2662 24.6089C5.2662 24.6089 5.16637 23.6106 5.96504 22.762Z" fill="#FDF516"/>
<path d="M8.26118 17.97C5.16633 12.7787 0.0249023 14.9251 0.0249023 14.9251C0.0249023 14.9251 7.36267 7.58735 12.3044 12.5291L8.26118 17.97Z" fill="#3BAACF"/>
<path d="M10.6572 14.1265L12.2545 12.5291C7.36267 7.58735 0.0249023 14.9251 0.0249023 14.9251C0.0249023 14.9251 6.46417 10.3328 10.6572 14.1265Z" fill="#428BC1"/>
<path d="M12.0049 21.7139C17.1962 24.8088 15.0498 29.9502 15.0498 29.9502C15.0498 29.9502 22.3876 22.6124 17.4458 17.6707L12.0049 21.7139Z" fill="#3BAACF"/>
<path d="M15.8485 19.3178L17.4458 17.7205C22.3876 22.6622 15.0498 30 15.0498 30C15.0498 30 19.6422 23.5108 15.8485 19.3178Z" fill="#428BC1"/>
<path d="M23.3861 14.426C17.5459 20.2163 11.1066 23.3611 8.86034 21.1148C6.61409 18.8686 9.75884 12.4293 15.5492 6.58905C22.3379 -0.199632 29.8753 0.0998694 29.8753 0.0998694C29.8753 0.0998694 30.1249 7.63731 23.3861 14.426Z" fill="#C5D0D8"/>
<path d="M21.8885 12.7787C16.0981 18.569 10.3078 22.3627 8.96002 21.015C7.61226 19.6672 11.4059 13.8769 17.1963 8.08652C23.985 1.29784 29.975 0 29.975 0C29.975 0 28.6772 5.99002 21.8885 12.7787Z" fill="#DAE3EA"/>
<path d="M11.1564 22.712C10.9068 22.9616 10.5075 22.9616 10.2579 22.712L7.26287 19.717C7.01329 19.4675 7.01329 19.0182 7.26287 18.7686L8.16137 17.8701L12.0549 21.7636L11.1564 22.712Z" fill="#C94747"/>
<path d="M10.3077 21.8136C10.0581 22.0632 9.75859 22.163 9.60884 22.0133L7.91167 20.3161C7.76192 20.1663 7.86175 19.8668 8.11134 19.6173L9.00984 18.7188L11.2062 20.9151L10.3077 21.8136Z" fill="#F15744"/>
<path d="M9.45929 23.0615C9.30954 23.2113 8.96012 23.2113 8.81037 23.0615L6.86361 21.1148C6.71386 20.965 6.76378 20.6655 6.91353 20.5157L7.51253 19.9167L10.0583 22.4625L9.45929 23.0615Z" fill="#3E4347"/>
<path d="M9.05979 22.6623C8.91004 22.812 8.61054 22.8619 8.51071 22.7621L7.16295 21.4143C7.06312 21.3145 7.11304 21.0649 7.3127 20.9152L7.91171 20.3162L9.65879 22.0633L9.05979 22.6623Z" fill="#62727A"/>
<path d="M29.8751 0.0997044C29.8751 0.0997044 27.1796 -0.000129104 23.5356 1.39754L28.5772 6.43914C29.9749 2.79521 29.8751 0.0997044 29.8751 0.0997044Z" fill="#C94747"/>
<path d="M29.8751 0.0998535C29.8751 0.0998535 27.7287 0.549105 24.4841 2.39603L27.579 5.49087C29.4259 2.24628 29.8751 0.0998535 29.8751 0.0998535Z" fill="#F15744"/>
<path d="M20.7405 11.7304C22.1189 11.7304 23.2363 10.613 23.2363 9.23461C23.2363 7.8562 22.1189 6.73877 20.7405 6.73877C19.3621 6.73877 18.2446 7.8562 18.2446 9.23461C18.2446 10.613 19.3621 11.7304 20.7405 11.7304Z" fill="#EDF4F9"/>
<path d="M20.7403 10.8819C21.65 10.8819 22.3875 10.1444 22.3875 9.23466C22.3875 8.3249 21.65 7.5874 20.7403 7.5874C19.8305 7.5874 19.093 8.3249 19.093 9.23466C19.093 10.1444 19.8305 10.8819 20.7403 10.8819Z" fill="#3BAACF"/>
<path d="M15.7488 16.7221C17.1272 16.7221 18.2446 15.6047 18.2446 14.2263C18.2446 12.8479 17.1272 11.7305 15.7488 11.7305C14.3704 11.7305 13.2529 12.8479 13.2529 14.2263C13.2529 15.6047 14.3704 16.7221 15.7488 16.7221Z" fill="#EDF4F9"/>
<path d="M15.7488 15.8736C16.6586 15.8736 17.3961 15.1361 17.3961 14.2264C17.3961 13.3166 16.6586 12.5791 15.7488 12.5791C14.8391 12.5791 14.1016 13.3166 14.1016 14.2264C14.1016 15.1361 14.8391 15.8736 15.7488 15.8736Z" fill="#3BAACF"/>
<path d="M23.4359 2.44593C23.2862 2.59568 22.9867 2.59568 22.8369 2.44593C22.6872 2.29618 22.6872 1.99668 22.8369 1.84693C22.9867 1.69718 23.2862 1.69718 23.4359 1.84693C23.5857 1.99668 23.5857 2.29618 23.4359 2.44593Z" fill="white"/>
<path d="M24.2846 3.69393C24.5051 3.69393 24.6839 3.51514 24.6839 3.2946C24.6839 3.07405 24.5051 2.89526 24.2846 2.89526C24.064 2.89526 23.8853 3.07405 23.8853 3.2946C23.8853 3.51514 24.064 3.69393 24.2846 3.69393Z" fill="white"/>
<path d="M25.4826 4.89169C25.7031 4.89169 25.8819 4.7129 25.8819 4.49235C25.8819 4.27181 25.7031 4.09302 25.4826 4.09302C25.262 4.09302 25.0833 4.27181 25.0833 4.49235C25.0833 4.7129 25.262 4.89169 25.4826 4.89169Z" fill="white"/>
<path d="M26.6308 6.08993C26.8513 6.08993 27.0301 5.91114 27.0301 5.69059C27.0301 5.47005 26.8513 5.29126 26.6308 5.29126C26.4102 5.29126 26.2314 5.47005 26.2314 5.69059C26.2314 5.91114 26.4102 6.08993 26.6308 6.08993Z" fill="white"/>
<path d="M27.8285 7.23788C28.0491 7.23788 28.2279 7.05909 28.2279 6.83854C28.2279 6.618 28.0491 6.43921 27.8285 6.43921C27.608 6.43921 27.4292 6.618 27.4292 6.83854C27.4292 7.05909 27.608 7.23788 27.8285 7.23788Z" fill="white"/>
</svg>
